<svg width="64" height="12" viewBox="0 0 64 12" fill="none" xmlns="http://www.w3.org/2000/svg">
<path d="M4.63999 11.456C3.75465 11.456 3.08799 11.184 2.63999 10.64V11.328H-1.36495e-05V2.86102e-06H2.63999V3.904C3.11999 3.392 3.80265 3.136 4.68799 3.136C5.82932 3.136 6.73599 3.50934 7.40799 4.256C8.07999 5.00267 8.41599 6.016 8.41599 7.296C8.41599 8.58667 8.07465 9.60534 7.39199 10.352C6.71999 11.088 5.80265 11.456 4.63999 11.456ZM2.95999 8.688C3.26932 9.04 3.67465 9.216 4.17599 9.216C4.67732 9.216 5.07732 9.04 5.37599 8.688C5.68532 8.336 5.83999 7.872 5.83999 7.296C5.83999 6.72 5.68532 6.256 5.37599 5.904C5.07732 5.552 4.67732 5.376 4.17599 5.376C3.67465 5.376 3.26932 5.552 2.95999 5.904C2.65065 6.256 2.49599 6.72 2.49599 7.296C2.49599 7.872 2.65065 8.336 2.95999 8.688ZM16.95 3.264V11.328H14.31V10.4C13.7873 11.104 12.998 11.456 11.942 11.456C11.0353 11.456 10.31 11.1893 9.76599 10.656C9.22199 10.112 8.94999 9.392 8.94999 8.496V3.264H11.59V7.776C11.59 8.18134 11.702 8.50667 11.926 8.752C12.1607 8.99734 12.4647 9.12 12.838 9.12C13.8193 9.12 14.31 8.34667 14.31 6.8V3.264H16.95ZM23.1324 11.232C22.7164 11.3813 22.2737 11.456 21.8044 11.456C20.823 11.456 20.0284 11.2 19.4204 10.688C18.823 10.176 18.5244 9.44 18.5244 8.48V5.44H17.2924V3.264H18.5244V0.960003H21.1644V3.264H23.0684V5.44H21.1644V8.064C21.1644 8.39467 21.2444 8.66134 21.4044 8.864C21.5644 9.056 21.783 9.152 22.0604 9.152C22.4124 9.152 22.7057 9.09334 22.9404 8.976L23.1324 11.232ZM28.8011 11.232C28.3851 11.3813 27.9424 11.456 27.4731 11.456C26.4918 11.456 25.6971 11.2 25.0891 10.688C24.4918 10.176 24.1931 9.44 24.1931 8.48V5.44H22.9611V3.264H24.1931V0.960003H26.8331V3.264H28.7371V5.44H26.8331V8.064C26.8331 8.39467 26.9131 8.66134 27.0731 8.864C27.2331 9.056 27.4518 9.152 27.7291 9.152C28.0811 9.152 28.3744 9.09334 28.6091 8.976L28.8011 11.232ZM36.9845 7.136C36.9845 7.52 36.9738 7.84 36.9525 8.096H31.3685C31.5925 8.88534 32.1418 9.28 33.0165 9.28C33.3472 9.28 33.6298 9.20534 33.8645 9.056C34.1098 8.896 34.2752 8.67734 34.3605 8.4L36.8405 9.088C36.5952 9.83467 36.1258 10.416 35.4325 10.832C34.7392 11.248 33.9072 11.456 32.9365 11.456C32.2432 11.456 31.6192 11.3333 31.0645 11.088C30.5098 10.832 30.0672 10.5013 29.7365 10.096C29.4058 9.68 29.1498 9.232 28.9685 8.752C28.7978 8.272 28.7125 7.78667 28.7125 7.296C28.7125 6.79467 28.7872 6.30934 28.9365 5.84C29.0965 5.36 29.3312 4.91734 29.6405 4.512C29.9498 4.096 30.3712 3.76534 30.9045 3.52C31.4485 3.264 32.0672 3.136 32.7605 3.136C33.4858 3.136 34.1312 3.264 34.6965 3.52C35.2618 3.76534 35.7045 4.096 36.0245 4.512C36.3445 4.91734 36.5845 5.344 36.7445 5.792C36.9045 6.24 36.9845 6.688 36.9845 7.136ZM31.3525 6.272H34.1365C34.1152 5.90934 33.9872 5.616 33.7525 5.392C33.5285 5.168 33.1978 5.056 32.7605 5.056C32.0138 5.056 31.5445 5.46134 31.3525 6.272ZM43.1636 5.808C42.9076 5.68 42.5716 5.616 42.1556 5.616C41.5903 5.616 41.1156 5.84 40.7316 6.288C40.3476 6.736 40.1556 7.46134 40.1556 8.464V11.328H37.5156V3.264H40.1556V4.592C40.3263 4.18667 40.6356 3.84534 41.0836 3.568C41.5423 3.28 42.0116 3.136 42.4916 3.136C42.8223 3.136 43.0996 3.17867 43.3236 3.264L43.1636 5.808ZM43.5437 11.328V2.86102e-06H46.1837V11.328H43.5437ZM50.3027 3.136C51.4761 3.136 52.3987 3.43467 53.0707 4.032C53.7534 4.61867 54.0947 5.49334 54.0947 6.656V11.328H51.5347V10.416C51.3001 10.7253 50.9854 10.976 50.5907 11.168C50.1961 11.36 49.7961 11.456 49.3907 11.456C48.6227 11.456 47.9881 11.2267 47.4867 10.768C46.9854 10.2987 46.7347 9.72267 46.7347 9.04C46.7347 7.48267 47.8601 6.58134 50.1107 6.336L51.5347 6.176C51.5347 5.824 51.4227 5.552 51.1987 5.36C50.9854 5.15734 50.6867 5.056 50.3027 5.056C49.9721 5.056 49.6947 5.15734 49.4707 5.36C49.2467 5.552 49.1187 5.81867 49.0867 6.16L46.7827 5.744C46.9214 4.95467 47.3214 4.32534 47.9827 3.856C48.6441 3.376 49.4174 3.136 50.3027 3.136ZM50.0787 9.616C50.5267 9.616 50.8841 9.45067 51.1507 9.12C51.4174 8.77867 51.5454 8.40534 51.5347 8L50.0467 8.192C49.7907 8.224 49.5934 8.31467 49.4547 8.464C49.3161 8.60267 49.2467 8.76267 49.2467 8.944C49.2467 9.136 49.3161 9.296 49.4547 9.424C49.6041 9.552 49.8121 9.616 50.0787 9.616ZM59.6619 11.456C58.7765 11.456 58.1099 11.184 57.6619 10.64V11.328H55.0219V2.86102e-06H57.6619V3.904C58.1419 3.392 58.8245 3.136 59.7099 3.136C60.8512 3.136 61.7579 3.50934 62.4299 4.256C63.1019 5.00267 63.4379 6.016 63.4379 7.296C63.4379 8.58667 63.0965 9.60534 62.4139 10.352C61.7419 11.088 60.8245 11.456 59.6619 11.456ZM57.9819 8.688C58.2912 9.04 58.6965 9.216 59.1979 9.216C59.6992 9.216 60.0992 9.04 60.3979 8.688C60.7072 8.336 60.8619 7.872 60.8619 7.296C60.8619 6.72 60.7072 6.256 60.3979 5.904C60.0992 5.552 59.6992 5.376 59.1979 5.376C58.6965 5.376 58.2912 5.552 57.9819 5.904C57.6725 6.256 57.5179 6.72 57.5179 7.296C57.5179 7.872 57.6725 8.336 57.9819 8.688Z" fill="#ffff00"/>
</svg>
