<svg width="23" height="23" viewBox="0 0 23 23" fill="none" xmlns="http://www.w3.org/2000/svg">
<path d="M16.7504 0.559998H5.81979C2.91479 0.559998 0.559814 2.91497 0.559814 5.81998V16.7506C0.559814 19.6556 2.91479 22.0106 5.81979 22.0106H16.7504C19.6554 22.0106 22.0104 19.6556 22.0104 16.7506V5.81998C22.0104 2.91497 19.6554 0.559998 16.7504 0.559998Z" fill="white"/>
<path d="M16.0571 20.8159H16.0905C17.8766 20.8159 19.3286 18.9807 19.3286 16.729V5.84356C19.3286 3.58984 17.8766 1.75661 16.0905 1.75661H16.0571L16.4501 0.365479H16.4835C18.8807 0.365479 20.8239 2.81765 20.8239 5.84356V16.727C20.8239 19.751 18.8807 22.2051 16.4835 22.2051H16.4501L16.0571 20.8159Z" fill="#7C7C7C"/>
<path d="M6.12455 20.8159H6.48216C4.69805 20.8159 3.246 18.9807 3.246 16.729V5.84356C3.246 3.58984 4.69805 1.75661 6.48216 1.75661H6.12455V0.365479H6.08918C3.694 0.365479 1.75073 2.81765 1.75073 5.84356V16.727C1.75073 19.751 3.694 22.2051 6.08918 22.2051H6.12455V20.8159Z" fill="#7C7C7C"/>
<path d="M11.2647 18.517C9.33121 18.517 7.63159 17.0433 7.22486 15.0136C7.20279 14.9064 7.20957 14.7952 7.24451 14.6914C7.27797 14.5873 7.3391 14.4942 7.42135 14.4222C7.50183 14.3476 7.60092 14.296 7.70822 14.2729C7.81513 14.2508 7.92582 14.2555 8.03046 14.2866C8.93037 14.5696 10.2508 14.9429 11.2843 14.9429C12.3945 14.9429 13.2158 14.5971 14.0862 14.2296C14.2198 14.1727 14.3534 14.1157 14.4792 14.0626C14.5816 14.02 14.6934 14.005 14.8034 14.0194C14.8865 14.0286 14.9668 14.0543 15.0399 14.0949C15.113 14.1355 15.1772 14.1902 15.229 14.2558C15.2807 14.3214 15.3189 14.3967 15.3413 14.4772C15.3637 14.5577 15.3699 14.6419 15.3595 14.7248C15.051 16.8862 13.2944 18.517 11.2647 18.517Z" fill="#222222"/>
<path d="M12.9053 16.503C12.948 16.5015 12.9903 16.5119 13.0274 16.5331C13.0645 16.5543 13.095 16.5854 13.1154 16.623C13.1358 16.6605 13.1453 16.703 13.1429 16.7457C13.1405 16.7884 13.1263 16.8295 13.1017 16.8645C12.9359 17.0914 12.7285 17.2847 12.4907 17.4344C12.0103 17.738 11.4326 17.848 10.8743 17.7422C10.3159 17.6365 9.81851 17.3228 9.48244 16.8645C9.45794 16.8295 9.44369 16.7884 9.44128 16.7457C9.43888 16.703 9.44841 16.6605 9.46882 16.623C9.48923 16.5854 9.5197 16.5543 9.55682 16.5331C9.59393 16.5119 9.63622 16.5015 9.67893 16.503H12.9053Z" fill="white"/>
<path d="M16.8252 0H5.74334C4.22075 0.00207933 2.76111 0.607847 1.68448 1.68448C0.607846 2.76112 0.00207933 4.22075 0 5.74334V16.8252C0.00156046 18.348 0.607161 19.8079 1.68391 20.8847C2.76065 21.9614 4.22059 22.567 5.74334 22.5686H16.8252C18.348 22.567 19.8079 21.9614 20.8847 20.8847C21.9614 19.8079 22.567 18.348 22.5686 16.8252V5.74334C22.5665 4.22075 21.9607 2.76112 20.8841 1.68448C19.8075 0.607847 18.3478 0.00207933 16.8252 0V0ZM20.8218 16.8252C20.8187 17.8837 20.3964 18.8978 19.6474 19.6457C18.8985 20.3936 17.8837 20.8144 16.8252 20.8159H5.74334C4.68352 20.8144 3.66759 20.3925 2.91837 19.6429C2.16915 18.8933 1.74782 17.8772 1.74678 16.8174V5.74334C1.75093 4.68557 2.17364 3.67245 2.92252 2.92541C3.6714 2.17837 4.68556 1.75815 5.74334 1.7566H6.99889C7.13969 1.7566 7.2791 1.78436 7.40915 1.8383C7.5392 1.89224 7.65734 1.9713 7.7568 2.07094C7.85626 2.17059 7.9351 2.28887 7.9888 2.41902C8.0425 2.54917 8.07001 2.68863 8.06975 2.82942V2.82942V3.77453C8.06975 4.05854 8.18257 4.33092 8.3834 4.53174C8.58422 4.73257 8.8566 4.84539 9.14061 4.84539C9.42462 4.84539 9.697 4.73257 9.89782 4.53174C10.0986 4.33092 10.2115 4.05854 10.2115 3.77453V2.81567C10.2151 2.53387 10.3294 2.26481 10.5298 2.06663C10.7302 1.86846 11.0005 1.75709 11.2823 1.7566V1.7566C11.4231 1.7566 11.5625 1.78436 11.6926 1.8383C11.8226 1.89224 11.9408 1.9713 12.0402 2.07094C12.1397 2.17059 12.2185 2.28887 12.2722 2.41902C12.3259 2.54917 12.3534 2.68863 12.3532 2.82942V5.35036C12.365 5.62669 12.4831 5.88777 12.6828 6.07912C12.8825 6.27046 13.1484 6.37728 13.425 6.37728C13.7016 6.37728 13.9675 6.27046 14.1672 6.07912C14.3669 5.88777 14.485 5.62669 14.4969 5.35036V2.8196C14.4989 2.53627 14.6132 2.26532 14.8147 2.06608C15.0161 1.86684 15.2883 1.75555 15.5717 1.7566H16.8252C17.8832 1.75763 18.8976 2.17768 19.6466 2.92484C20.3956 3.67199 20.8182 4.68541 20.8218 5.74334V16.8252Z" fill="#373737"/>
<path d="M15.5696 7.47046C15.5225 7.46753 15.4753 7.46753 15.4282 7.47046H15.4164C15.4053 7.47251 15.3946 7.4765 15.3849 7.48224C15.3594 7.48224 15.3554 7.51172 15.3554 7.53923C15.3554 7.54963 15.3579 7.55988 15.3627 7.56911C15.3675 7.57834 15.3745 7.58629 15.383 7.59228C15.5323 7.68728 15.6492 7.82545 15.7181 7.98845C15.7871 8.15145 15.8048 8.33156 15.769 8.50488C15.7332 8.6782 15.6455 8.83653 15.5176 8.95885C15.3897 9.08116 15.2276 9.16169 15.0529 9.18972C14.8953 9.22329 14.7312 9.20906 14.5818 9.14885C14.4323 9.08865 14.3042 8.9852 14.2139 8.85176C14.2084 8.84219 14.2003 8.83436 14.1906 8.82915C14.1808 8.82394 14.1698 8.82156 14.1588 8.82229C14.1421 8.82157 14.1257 8.82695 14.1127 8.83744C14.0997 8.84793 14.091 8.8628 14.0881 8.87927C14.0509 9.03695 14.0337 9.19869 14.037 9.36067C14.037 10.4138 14.7228 11.2666 15.5637 11.2666C16.4047 11.2666 17.0924 10.4138 17.0924 9.36067C17.0924 8.30749 16.4145 7.47046 15.5696 7.47046Z" fill="#222222"/>
<path d="M6.99711 7.47045C6.94935 7.46753 6.90145 7.46753 6.85368 7.47045H6.84385C6.83266 7.47212 6.82195 7.47614 6.81241 7.48223C6.78687 7.48223 6.78294 7.51171 6.78294 7.53922C6.78294 7.54962 6.78543 7.55987 6.79022 7.5691C6.79501 7.57833 6.80195 7.58628 6.81045 7.59227C6.95977 7.68727 7.07666 7.82544 7.14562 7.98844C7.21457 8.15144 7.23231 8.33155 7.1965 8.50487C7.16068 8.67819 7.073 8.83652 6.94509 8.95884C6.81718 9.08115 6.6551 9.16168 6.48035 9.18971C6.32275 9.22328 6.15871 9.20905 6.00925 9.14884C5.85978 9.08864 5.73168 8.98519 5.64135 8.85175C5.63585 8.84218 5.62779 8.83435 5.61806 8.82914C5.60833 8.82393 5.59734 8.82155 5.58633 8.82228C5.56963 8.82156 5.55324 8.82694 5.54022 8.83743C5.5272 8.84792 5.51844 8.86279 5.51559 8.87926C5.47838 9.03694 5.46122 9.19868 5.46451 9.36066C5.46451 10.4138 6.15025 11.2666 6.99122 11.2666C7.83219 11.2666 8.51989 10.4138 8.51989 9.36066C8.51989 8.30748 7.84201 7.47045 6.99711 7.47045Z" fill="#222222"/>
</svg>
