<svg width="23" height="23" viewBox="0 0 23 23" fill="none" xmlns="http://www.w3.org/2000/svg">
<path d="M16.8505 0.659973H5.91989C3.01488 0.659973 0.659912 3.01495 0.659912 5.91995V16.8506C0.659912 19.7556 3.01488 22.1105 5.91989 22.1105H16.8505C19.7555 22.1105 22.1105 19.7556 22.1105 16.8506V5.91995C22.1105 3.01495 19.7555 0.659973 16.8505 0.659973Z" fill="white"/>
<path d="M16.1572 20.9159H16.1906C17.9767 20.9159 19.4287 19.0807 19.4287 16.829V5.94353C19.4287 3.68982 17.9767 1.85659 16.1906 1.85659H16.1572L16.5502 0.465454H16.5836C18.9808 0.465454 20.924 2.91762 20.924 5.94353V16.827C20.924 19.8509 18.9808 22.3051 16.5836 22.3051H16.5502L16.1572 20.9159Z" fill="#7C7C7C"/>
<path d="M6.22465 20.9159H6.58226C4.79815 20.9159 3.3461 19.0807 3.3461 16.829V5.94353C3.3461 3.68982 4.79815 1.85659 6.58226 1.85659H6.22465V0.465454H6.18928C3.79409 0.465454 1.85083 2.91762 1.85083 5.94353V16.827C1.85083 19.8509 3.79409 22.3051 6.18928 22.3051H6.22465V20.9159Z" fill="#7C7C7C"/>
<path d="M11.3647 18.617C9.43131 18.617 7.73169 17.1433 7.32496 15.1136C7.30289 15.0063 7.30967 14.8951 7.34461 14.7914C7.37807 14.6873 7.43919 14.5942 7.52145 14.5222C7.60192 14.4475 7.70102 14.396 7.80832 14.3728C7.91522 14.3508 8.02592 14.3555 8.13056 14.3866C9.03047 14.6695 10.3509 15.0429 11.3844 15.0429C12.4946 15.0429 13.3159 14.697 14.1863 14.3296C14.3199 14.2726 14.4535 14.2157 14.5793 14.1626C14.6817 14.1199 14.7935 14.105 14.9035 14.1194C14.9866 14.1286 15.0669 14.1543 15.14 14.1949C15.2131 14.2354 15.2773 14.2901 15.3291 14.3558C15.3808 14.4214 15.419 14.4967 15.4414 14.5772C15.4638 14.6577 15.47 14.7418 15.4596 14.8248C15.1511 16.9861 13.3945 18.617 11.3647 18.617Z" fill="#222222"/>
<path d="M13.0054 16.603C13.0481 16.6015 13.0904 16.6119 13.1275 16.6331C13.1646 16.6543 13.1951 16.6854 13.2155 16.723C13.2359 16.7605 13.2454 16.803 13.243 16.8457C13.2406 16.8884 13.2263 16.9295 13.2018 16.9645C13.036 17.1914 12.8286 17.3847 12.5908 17.5343C12.1104 17.8379 11.5327 17.948 10.9744 17.8422C10.416 17.7364 9.91861 17.4228 9.58254 16.9645C9.55804 16.9295 9.54379 16.8884 9.54138 16.8457C9.53897 16.803 9.54851 16.7605 9.56892 16.723C9.58933 16.6854 9.6198 16.6543 9.65691 16.6331C9.69403 16.6119 9.73632 16.6015 9.77903 16.603H13.0054Z" fill="white"/>
<path d="M16.9253 0.0501709C18.4611 0.0522683 19.934 0.663395 21.02 1.74939C22.1058 2.83532 22.7161 4.30753 22.7183 5.84314V16.9252C22.7167 18.4612 22.1061 19.9338 21.02 21.0199C19.9339 22.106 18.4613 22.7166 16.9253 22.7181H5.84326C4.30731 22.7165 2.83462 22.106 1.74854 21.0199C0.662495 19.9338 0.0518669 18.4611 0.050293 16.9252V5.84314C0.0524183 4.30735 0.663542 2.83536 1.74951 1.74939C2.83548 0.66342 4.30747 0.052296 5.84326 0.0501709H16.9253ZM5.84326 1.90662C4.7988 1.90821 3.79757 2.32328 3.05811 3.06091C2.31867 3.79854 1.90117 4.79872 1.89697 5.84314V16.9174L1.90186 17.1127C1.95105 18.0881 2.3605 19.0134 3.0542 19.7074C3.79399 20.4475 4.79682 20.864 5.84326 20.8656H16.9253L17.1206 20.8607C18.0947 20.8111 19.019 20.4027 19.7124 19.7103C20.452 18.9718 20.8685 17.9703 20.8716 16.9252V5.84314C20.8679 4.79856 20.451 3.79767 19.7114 3.05994C18.9718 2.32221 17.9699 1.90764 16.9253 1.90662H15.6714C15.4013 1.90567 15.1417 2.01164 14.9497 2.20154C14.7577 2.39147 14.649 2.65023 14.647 2.92029V5.45251C14.6346 5.74163 14.5112 6.01497 14.3022 6.21521C14.0932 6.41547 13.8144 6.52771 13.5249 6.52771C13.2356 6.52765 12.9575 6.41536 12.7485 6.21521C12.5395 6.01496 12.4162 5.7417 12.4038 5.45251L12.4028 5.45056V2.92908C12.403 2.795 12.3768 2.6624 12.3257 2.53845C12.2745 2.41443 12.1997 2.30139 12.105 2.20642C12.0103 2.11154 11.8977 2.03616 11.7739 1.98474C11.6499 1.93332 11.5165 1.90662 11.3823 1.90662C11.1137 1.90714 10.8565 2.01365 10.6655 2.20251C10.4745 2.39145 10.3653 2.64772 10.3618 2.91638V3.87439C10.3618 4.17163 10.2439 4.45716 10.0337 4.66736C9.82349 4.87756 9.53799 4.99548 9.24072 4.99548C8.94345 4.99548 8.65796 4.87756 8.44775 4.66736C8.23758 4.45716 8.11963 4.17164 8.11963 3.87439V2.92908C8.11984 2.79503 8.09357 2.66238 8.04248 2.53845C7.99133 2.41448 7.91649 2.30137 7.82178 2.20642C7.72696 2.11143 7.61372 2.03616 7.48975 1.98474C7.36586 1.93339 7.23323 1.90663 7.09912 1.90662H5.84326Z" fill="#393939" stroke="#636363" stroke-width="0.1"/>
<path d="M15.6697 7.57043C15.6226 7.56751 15.5754 7.56751 15.5282 7.57043H15.5165C15.5054 7.57249 15.4947 7.57648 15.485 7.58222C15.4595 7.58222 15.4555 7.61169 15.4555 7.6392C15.4555 7.6496 15.458 7.65985 15.4628 7.66909C15.4676 7.67832 15.4746 7.68626 15.4831 7.69225C15.6324 7.78726 15.7493 7.92543 15.8182 8.08843C15.8872 8.25142 15.9049 8.43154 15.8691 8.60486C15.8333 8.77818 15.7456 8.9365 15.6177 9.05882C15.4898 9.18114 15.3277 9.26166 15.153 9.2897C14.9954 9.32327 14.8313 9.30903 14.6819 9.24883C14.5324 9.18862 14.4043 9.08518 14.314 8.95174C14.3085 8.94217 14.3004 8.93433 14.2907 8.92912C14.2809 8.92391 14.2699 8.92154 14.2589 8.92227C14.2422 8.92154 14.2258 8.92693 14.2128 8.93742C14.1998 8.9479 14.1911 8.96278 14.1882 8.97925C14.151 9.13692 14.1338 9.29867 14.1371 9.46064C14.1371 10.5138 14.8229 11.3666 15.6638 11.3666C16.5048 11.3666 17.1925 10.5138 17.1925 9.46064C17.1925 8.40747 16.5146 7.57043 15.6697 7.57043Z" fill="#222222"/>
<path d="M7.09721 7.57042C7.04944 7.56751 7.00154 7.56751 6.95378 7.57042H6.94395C6.93276 7.5721 6.92205 7.57612 6.91251 7.58221C6.88697 7.58221 6.88304 7.61168 6.88304 7.63919C6.88303 7.64959 6.88553 7.65984 6.89032 7.66908C6.8951 7.67831 6.90204 7.68625 6.91055 7.69224C7.05987 7.78725 7.17676 7.92542 7.24571 8.08842C7.31466 8.25141 7.33241 8.43153 7.2966 8.60485C7.26078 8.77817 7.1731 8.93649 7.04519 9.05881C6.91728 9.18113 6.75519 9.26165 6.58045 9.28969C6.42284 9.32326 6.25881 9.30902 6.10934 9.24882C5.95988 9.18861 5.83178 9.08517 5.74144 8.95173C5.73595 8.94216 5.72788 8.93432 5.71816 8.92911C5.70843 8.9239 5.69744 8.92153 5.68643 8.92226C5.66973 8.92153 5.65333 8.92692 5.64032 8.93741C5.6273 8.94789 5.61854 8.96277 5.61569 8.97924C5.57848 9.13691 5.56132 9.29866 5.56461 9.46063C5.56461 10.5138 6.25035 11.3666 7.09132 11.3666C7.93228 11.3666 8.61999 10.5138 8.61999 9.46063C8.61999 8.40746 7.94211 7.57042 7.09721 7.57042Z" fill="#222222"/>
</svg>
